<svg width="165" height="40" viewBox="0 0 165 40" fill="none" xmlns="http://www.w3.org/2000/svg">
<path d="M89.5958 19.9101C90.0877 17.361 90.5945 14.8011 91.0928 12.252C91.6546 9.34925 92.2206 6.45009 92.7908 3.55449C93.0368 2.33551 93.4602 2.00831 94.6792 1.98051C95.6629 1.96483 96.6481 1.96483 97.6347 1.98051C98.8109 2.00831 99.2493 2.54081 99.029 3.69136C97.6275 10.9239 96.2211 18.1608 94.8096 25.402C94.5958 26.5247 94.3819 27.6474 94.1531 28.7723C93.8922 30.0554 93.4688 30.4147 92.1279 30.4147C90.9239 30.4297 89.7049 30.4147 88.4923 30.4147C86.9954 30.4147 86.6318 30.1538 86.1528 28.7167C84.4419 23.5671 82.7268 18.4124 81.0074 13.2528C80.9261 12.9919 80.8149 12.7182 80.6374 12.2263C80.1456 14.7584 79.6943 17.0595 79.2559 19.3477C78.6529 22.4294 78.0648 25.526 77.451 28.6076C77.1495 30.1282 76.7923 30.4019 75.2739 30.4147H72.9985C71.3283 30.4147 70.9583 29.987 71.2727 28.3189C72.2308 23.2933 73.2074 18.2713 74.2025 13.2528C74.8035 10.1305 75.4194 7.02108 76.0224 3.89666C76.3368 2.28205 76.6918 1.97196 78.2936 1.97196H81.6319C83.2336 1.97196 83.5566 2.20506 84.0548 3.69777C85.7657 8.84883 87.4765 14.0035 89.1874 19.1617C89.2686 19.3948 89.352 19.6428 89.4333 19.8738C89.4839 19.8983 89.5396 19.9108 89.5958 19.9101Z" fill="#021536"/>
<path d="M121.547 20.1433H116.175C114.738 20.1433 114.355 19.6621 114.601 18.2528C115.116 15.1712 115.129 15.1498 118.313 15.1498H127.851C129.397 15.1498 129.643 15.4791 129.301 16.9846C128.056 22.3546 125.347 26.6702 120.319 29.245C117.09 30.9024 113.615 31.437 110.043 30.6821C104.432 29.5037 100.792 24.8203 100.875 19.0548C101.025 9.31579 109.742 1.01393 119.442 1.4395C123.097 1.60417 126.354 2.73974 128.352 6.0545C129.036 7.19221 129.432 8.54805 129.789 9.85043C130.09 10.986 129.575 11.5206 128.392 11.5484C126.97 11.5762 125.533 11.5484 124.096 11.5484C123.779 11.562 123.465 11.4805 123.194 11.3143C122.924 11.1482 122.709 10.905 122.577 10.616C120.879 7.48733 118.313 6.44585 114.936 7.67766C110.805 9.17465 108.67 12.3825 107.931 16.5805C107.732 17.7697 107.746 18.9848 107.973 20.169C108.658 23.7318 111.75 25.7035 115.39 25.0192C116.537 24.8205 117.629 24.3807 118.594 23.729C119.558 23.0773 120.374 22.2283 120.986 21.2382C121.192 20.8831 121.379 20.5177 121.547 20.1433Z" fill="#1364F1"/>
<path d="M68.8057 16.5388C68.5748 11.6073 64.9349 8.47216 60.0227 8.89559C57.7088 9.08806 55.6707 9.9777 53.7546 11.5538C53.7952 9.64836 53.5899 9.44306 51.7978 9.44306H49.7042C47.8843 9.44306 47.5656 9.71679 47.2277 11.4854C46.3096 16.2529 45.3829 21.024 44.4476 25.7987C43.6414 29.9475 42.833 34.0856 42.0524 38.2494C41.8215 39.509 42.2321 39.9752 43.4895 39.988C44.4747 40.0023 45.4599 40.0023 46.445 39.988C47.7453 39.9752 48.1559 39.6737 48.4168 38.414C48.7311 36.9171 49.0049 35.4201 49.3064 33.9231C49.6614 32.101 50.0164 30.2662 50.3864 28.3885C54.5052 31.7867 58.9791 31.9364 63.1942 28.705C67.1783 25.6276 69.0388 21.5237 68.8057 16.5388ZM62.2382 18.9981C62.1565 20.4486 61.6051 21.8331 60.6672 22.9427C59.7294 24.0522 58.456 24.8265 57.0394 25.1486C54.2743 25.7517 51.9218 23.8655 51.9218 21.0255C51.9218 17.916 54.4111 15.0525 57.4821 14.6098C58.0973 14.5111 58.7269 14.5533 59.3235 14.7333C59.92 14.9133 60.4679 15.2264 60.9259 15.6489C61.3838 16.0715 61.7399 16.5924 61.9672 17.1726C62.1945 17.7528 62.2872 18.3769 62.2382 18.9981Z" fill="#021536"/>
<path d="M40.9495 9.44329C39.7177 9.40266 38.473 9.41763 37.2263 9.44329C36.5163 9.45826 36.0501 9.85603 35.8448 10.5404C35.7485 10.8419 35.6801 11.1434 35.571 11.554C32.7396 8.56007 29.427 8.27992 25.9112 9.48606C20.8343 11.2247 17.1431 16.7443 17.126 22.4008C17.1132 28.2647 21.1764 31.742 26.9634 30.8245C28.9608 30.5102 30.6716 29.5799 32.2712 28.3182C32.1493 30.153 32.4081 30.4289 34.1959 30.4289C35.0514 30.4289 35.9068 30.4417 36.7622 30.4289C37.994 30.4139 38.4046 30.0846 38.6505 28.8656C39.1446 26.4705 39.6086 24.0731 40.0748 21.663C40.7592 18.1408 41.4435 14.6207 42.1 11.0878C42.3182 10.0164 41.9332 9.48606 40.9495 9.44329ZM34.0398 19.6399C33.8295 20.9803 33.2191 22.2259 32.2888 23.2134C31.3584 24.201 30.1515 24.8846 28.826 25.1745C26.0887 25.7498 23.7897 23.8721 23.7769 21.077C23.7769 17.9547 26.2534 15.0655 29.3179 14.6271C32.2456 14.2101 34.5189 16.6224 34.0398 19.6399Z" fill="#021536"/>
<path d="M6.58919 7.81551H1.88437C0.0644618 7.80268 -0.209273 7.46051 0.120064 5.63847C0.256932 4.92633 0.378829 4.19922 0.530666 3.48708C0.76163 2.4178 1.22784 2.00934 2.29497 1.99009C8.14035 1.97726 13.9857 1.97726 19.8311 1.99009C21.0073 1.99009 21.4457 2.55253 21.2254 3.70094C21.0758 4.55636 20.8983 5.38612 20.7336 6.22015C20.4876 7.41133 20.077 7.76847 18.8452 7.79627C17.3525 7.82478 15.8612 7.82478 14.3714 7.79627C13.7127 7.7813 13.3855 7.90533 13.2337 8.67307C11.9955 15.2256 10.708 21.7803 9.45913 28.32C9.10413 30.1548 8.80259 30.4158 6.94205 30.4158C6.02461 30.4158 5.09434 30.4307 4.17904 30.4158C2.8232 30.4029 2.39976 29.9089 2.6457 28.568C3.15253 25.8542 3.7 23.1425 4.2325 20.4308C5.01307 16.4595 5.79365 12.4583 6.57208 8.47419C6.58919 8.29455 6.57636 8.11705 6.58919 7.81551Z" fill="#021536"/>
<path d="M143.822 23.142C144.469 23.1428 145.103 22.9515 145.642 22.5923C146.181 22.233 146.601 21.722 146.85 21.1238C147.098 20.5256 147.163 19.8672 147.038 19.2318C146.912 18.5964 146.6 18.0126 146.143 17.5542C145.685 17.0959 145.101 16.7837 144.466 16.657C143.831 16.5303 143.172 16.5949 142.574 16.8426C141.975 17.0903 141.464 17.5099 141.104 18.0484C140.744 18.5869 140.552 19.2201 140.552 19.8679C140.551 20.2976 140.636 20.7231 140.8 21.1202C140.964 21.5173 141.205 21.8781 141.509 22.1821C141.812 22.4862 142.173 22.7274 142.57 22.8921C142.967 23.0568 143.392 23.1417 143.822 23.142Z" fill="#1364F1"/>
<path d="M154.478 23.9641C153.648 26.1214 152.184 27.9765 150.279 29.2845C148.373 30.5925 146.116 31.2921 143.804 31.2907C142.409 31.2903 141.026 31.0299 139.726 30.523C136.903 29.4321 134.627 27.266 133.398 24.4999C132.17 21.7338 132.088 18.5933 133.171 15.767C133.199 15.6962 133.24 15.6315 133.293 15.5768C133.345 15.5221 133.408 15.4785 133.478 15.4484C133.548 15.4183 133.623 15.4025 133.698 15.4017C133.774 15.401 133.85 15.4154 133.92 15.4441L137.192 16.7037C137.264 16.7306 137.329 16.7716 137.385 16.8243C137.44 16.8771 137.485 16.9405 137.515 17.0107C137.546 17.0809 137.562 17.1566 137.562 17.2332C137.563 17.3097 137.548 17.3857 137.519 17.4564C137.04 18.7011 136.942 20.0598 137.236 21.3605C137.529 22.6613 138.202 23.8457 139.169 24.7639C140.136 25.6821 141.354 26.2928 142.668 26.5189C143.982 26.7449 145.334 26.576 146.552 26.0337C147.771 25.4913 148.8 24.5998 149.512 23.4719C150.223 22.3441 150.584 21.0305 150.549 19.6975C150.514 18.3644 150.084 17.0718 149.314 15.9831C148.544 14.8944 147.468 14.0586 146.223 13.5814C145.145 13.1583 143.973 13.0306 142.829 13.2114C142.729 13.2265 142.626 13.2151 142.532 13.1784C142.437 13.1416 142.354 13.0808 142.29 13.0019C142.226 12.9229 142.184 12.8287 142.168 12.7286C142.152 12.6284 142.162 12.5258 142.198 12.4308L143.567 8.85518C143.609 8.74148 143.686 8.64421 143.787 8.57763C143.888 8.51104 144.008 8.47865 144.129 8.48521C145.417 8.51795 146.69 8.77261 147.891 9.23798C149.292 9.76982 150.575 10.5732 151.665 11.6019C152.755 12.6307 153.631 13.8646 154.243 15.2329C154.855 16.6011 155.191 18.0767 155.231 19.5751C155.271 21.0734 155.015 22.5649 154.478 23.9641Z" fill="#1364F1"/>
<path d="M162.752 26.9783C162.697 27.1226 162.587 27.2392 162.446 27.3032C162.305 27.3672 162.145 27.3734 162 27.3205L158.415 25.9368C158.344 25.9101 158.278 25.8692 158.222 25.8166C158.166 25.7639 158.122 25.7006 158.091 25.6303C158.06 25.5601 158.044 25.4844 158.043 25.4077C158.042 25.331 158.057 25.2549 158.086 25.184C159.516 21.4605 159.409 17.3219 157.791 13.6766C156.172 10.0312 153.174 7.17699 149.453 5.74031C148.261 5.28044 147.014 4.97847 145.744 4.84212C145.656 4.83371 145.571 4.80488 145.495 4.75788C145.42 4.71089 145.357 4.64703 145.31 4.57134C145.264 4.49564 145.236 4.41019 145.228 4.32172C145.22 4.23325 145.233 4.14418 145.265 4.06154L146.675 0.376817C146.724 0.251427 146.814 0.146463 146.931 0.079213C147.047 0.0119634 147.183 -0.0135601 147.316 0.00684706C148.656 0.236035 149.971 0.594123 151.243 1.07612C161.548 5.03459 166.707 16.664 162.752 26.9783Z" fill="#1364F1"/>
</svg>
