<svg width="789" height="29" viewBox="0 0 789 29" fill="none" xmlns="http://www.w3.org/2000/svg">
<path d="M696.424 4.2L694.338 14H693.358L695.192 5.292L693.512 5.992L693.708 5.068L695.808 4.2H696.424ZM700.439 14.126C698.479 14.126 697.205 12.628 697.205 10.318C697.205 6.958 699.291 4.074 701.727 4.074C703.687 4.074 704.961 5.572 704.961 7.882C704.961 11.256 702.889 14.126 700.439 14.126ZM700.565 13.23C702.385 13.23 703.953 10.766 703.953 7.868C703.953 6.062 703.071 4.97 701.601 4.97C699.781 4.97 698.213 7.448 698.213 10.332C698.213 12.124 699.109 13.23 700.565 13.23ZM708.283 9.17C707.219 9.17 706.533 8.414 706.533 7.238C706.533 5.544 707.625 4.13 708.941 4.13C710.005 4.13 710.691 4.886 710.691 6.062C710.691 7.756 709.599 9.17 708.283 9.17ZM708.353 8.526C709.249 8.526 710.005 7.406 710.005 6.076C710.005 5.264 709.571 4.76 708.857 4.76C707.975 4.76 707.219 5.894 707.219 7.21C707.219 8.036 707.653 8.526 708.353 8.526ZM707.625 14H706.869L714.345 4.2H715.143L707.625 14ZM713.029 14.07C711.965 14.07 711.279 13.314 711.279 12.138C711.279 10.444 712.371 9.03 713.687 9.03C714.751 9.03 715.437 9.786 715.437 10.962C715.437 12.656 714.345 14.07 713.029 14.07ZM713.099 13.426C713.995 13.426 714.751 12.306 714.751 10.976C714.751 10.164 714.317 9.66 713.603 9.66C712.721 9.66 711.965 10.794 711.965 12.11C711.965 12.936 712.399 13.426 713.099 13.426ZM724.973 13.188C726.065 13.188 727.143 12.726 727.955 11.942L728.515 12.67C727.479 13.622 726.191 14.154 724.903 14.154C722.313 14.154 720.353 12.166 720.353 9.52C720.353 6.524 722.733 4.06 725.603 4.06C727.157 4.06 728.417 4.662 729.229 5.824L728.431 6.524C727.829 5.586 726.765 5.04 725.547 5.04C723.251 5.04 721.431 7 721.431 9.478C721.431 11.62 722.929 13.188 724.973 13.188ZM729.778 10.948C729.778 8.792 731.388 7.042 733.362 7.042C735.112 7.042 736.316 8.358 736.316 10.234C736.316 12.376 734.692 14.14 732.718 14.14C731.01 14.14 729.778 12.81 729.778 10.948ZM732.774 13.23C734.188 13.23 735.308 11.9 735.308 10.234C735.308 8.876 734.51 7.938 733.32 7.938C731.906 7.938 730.772 9.282 730.772 10.934C730.772 12.292 731.584 13.23 732.774 13.23ZM737.343 14L738.841 7.168H739.835L739.611 8.218C740.241 7.448 740.927 7.07 741.697 7.07C742.663 7.07 743.335 7.616 743.559 8.456C744.315 7.518 745.113 7.07 745.995 7.07C747.381 7.07 748.151 8.204 747.815 9.716L746.891 14H745.897L746.793 9.828C747.045 8.708 746.513 7.91 745.533 7.91C744.861 7.91 744.245 8.26 743.629 9.044C743.629 9.254 743.615 9.478 743.559 9.716L742.635 14H741.627L742.509 9.926C742.775 8.736 742.257 7.91 741.263 7.91C740.591 7.91 739.989 8.246 739.457 8.918L738.351 14H737.343ZM748.335 16.926L750.435 7.168H751.415L751.261 7.896C751.793 7.392 752.451 7.112 753.193 7.112C754.761 7.112 755.923 8.428 755.923 10.206C755.923 12.348 754.327 14.112 752.381 14.112C751.443 14.112 750.659 13.706 750.197 12.964L749.343 16.926H748.335ZM752.829 7.98C752.199 7.98 751.597 8.232 751.107 8.68L750.365 12.138C750.715 12.782 751.457 13.216 752.255 13.216C753.753 13.216 754.929 11.928 754.929 10.29C754.929 8.918 754.075 7.98 752.829 7.98ZM760.071 3.78L757.943 14H756.935L759.035 3.99L760.071 3.78ZM765.919 13.37C765.121 13.902 764.379 14.126 763.539 14.126C761.705 14.126 760.431 12.838 760.431 10.976C760.431 8.82 761.999 7.056 763.945 7.056C765.541 7.056 766.689 8.316 766.689 10.066C766.689 10.318 766.675 10.542 766.647 10.808H761.411V10.948C761.411 12.264 762.349 13.244 763.581 13.244C764.239 13.244 764.911 13.02 765.387 12.642L765.919 13.37ZM763.875 7.952C762.741 7.952 761.817 8.834 761.509 10.08H765.737C765.765 8.89 764.953 7.952 763.875 7.952ZM768.555 12.362L769.479 8.008H768.107L768.303 7.168H769.661L770.053 5.292L771.131 5.054L770.669 7.168H772.601L772.405 8.008H770.487L769.591 12.138C769.423 12.922 769.675 13.23 770.529 13.23C770.753 13.23 770.921 13.202 771.313 13.09L771.117 14C770.795 14.084 770.459 14.126 770.123 14.126C768.877 14.126 768.303 13.496 768.555 12.362ZM778.374 13.37C777.576 13.902 776.834 14.126 775.994 14.126C774.16 14.126 772.886 12.838 772.886 10.976C772.886 8.82 774.454 7.056 776.4 7.056C777.996 7.056 779.144 8.316 779.144 10.066C779.144 10.318 779.13 10.542 779.102 10.808H773.866V10.948C773.866 12.264 774.804 13.244 776.036 13.244C776.694 13.244 777.366 13.02 777.842 12.642L778.374 13.37ZM776.33 7.952C775.196 7.952 774.272 8.834 773.964 10.08H778.192C778.22 8.89 777.408 7.952 776.33 7.952ZM784.995 14L785.135 13.356C784.603 13.832 783.959 14.098 783.231 14.098C781.663 14.098 780.515 12.768 780.515 11.004C780.515 8.862 782.097 7.098 784.043 7.098C784.967 7.098 785.723 7.49 786.213 8.19L787.081 3.99L788.117 3.78L785.989 14H784.995ZM781.509 10.92C781.509 12.278 782.363 13.216 783.595 13.216C784.225 13.216 784.813 12.978 785.303 12.544L786.031 9.016C785.667 8.4 784.953 7.994 784.169 7.994C782.685 7.994 781.509 9.282 781.509 10.92Z" fill="#151515" fill-opacity="0.75"/>
<rect y="25" width="788" height="4" fill="#D9D9D9"/>
<rect y="25" width="68" height="4" fill="url(#paint0_linear_2525_26342)"/>
<defs>
<linearGradient id="paint0_linear_2525_26342" x1="0" y1="27" x2="68" y2="27" gradientUnits="userSpaceOnUse">
<stop stop-color="#02BB2D"/>
<stop offset="1" stop-color="#2AD352"/>
</linearGradient>
</defs>
</svg>
