<svg width="16" height="16" viewBox="0 0 16 16" fill="none" xmlns="http://www.w3.org/2000/svg">
<g clip-path="url(#clip0_2314_714)">
<rect y="2.08008" width="16" height="11.84" rx="1.75" fill="white"/>
<path fill-rule="evenodd" clip-rule="evenodd" d="M16 3.63758C16 3.43285 15.9597 3.23012 15.8813 3.04097C15.803 2.85182 15.6882 2.67995 15.5434 2.53518C15.3986 2.39041 15.2268 2.27558 15.0376 2.19723C14.8485 2.11888 14.6457 2.07855 14.441 2.07855H1.559C1.35427 2.07855 1.15154 2.11888 0.962389 2.19723C0.773241 2.27558 0.601376 2.39041 0.456609 2.53518C0.311843 2.67995 0.197008 2.85182 0.118663 3.04097C0.0403176 3.23012 -4.10355e-06 3.43285 3.1323e-10 3.63758L3.13231e-10 12.3625C3.13231e-10 12.776 0.164251 13.1725 0.456621 13.4649C0.74899 13.7572 1.14553 13.9215 1.559 13.9215H14.441C14.6457 13.9215 14.8485 13.8812 15.0376 13.8028C15.2268 13.7245 15.3986 13.6096 15.5434 13.4649C15.6882 13.3201 15.803 13.1482 15.8813 12.9591C15.9597 12.7699 16 12.5672 16 12.3625V3.63758ZM15.4338 3.63755C15.4338 3.37425 15.3292 3.12173 15.143 2.93555C14.9568 2.74937 14.7043 2.64477 14.441 2.64477H1.559C1.2957 2.64477 1.04317 2.74937 0.856987 2.93555C0.670799 3.12173 0.566196 3.37425 0.566188 3.63755V12.3625C0.566196 12.6258 0.670799 12.8783 0.856987 13.0645C1.04317 13.2507 1.2957 13.3553 1.559 13.3553H14.441C14.7043 13.3553 14.9568 13.2507 15.143 13.0645C15.3292 12.8783 15.4338 12.6258 15.4338 12.3625V3.63755ZM4.54053 4.76102C2.75287 4.76102 1.30153 6.21236 1.30153 8.00002C1.30153 9.78768 2.75287 11.239 4.54053 11.239C6.32819 11.239 7.77953 9.78768 7.77953 8.00002C7.77953 6.21236 6.32819 4.76102 4.54053 4.76102ZM9.28056 10.7167H14.4019C14.5581 10.7167 14.685 10.5899 14.685 10.4336C14.685 10.2774 14.5581 10.1505 14.4019 10.1505H9.28056C9.12434 10.1505 8.99747 10.2774 8.99747 10.4336C8.99747 10.5899 9.12434 10.7167 9.28056 10.7167ZM3.90797 8.28311C3.88597 9.06274 3.7735 9.80818 3.58597 10.4971C3.88256 10.6106 4.20434 10.6728 4.54053 10.6728C4.87672 10.6728 5.1985 10.6106 5.49512 10.4971C5.30759 9.80818 5.19512 9.0628 5.17312 8.28311H3.90797ZM1.88259 8.28311C1.96844 9.09721 2.42037 9.80283 3.07041 10.232C3.22697 9.62193 3.32109 8.96655 3.34153 8.28311H1.88259ZM7.1985 8.28311H5.73953C5.76 8.96661 5.85413 9.62196 6.01066 10.232C6.66066 9.80283 7.11259 9.09727 7.1985 8.28311ZM9.28056 8.28311H14.4019C14.5581 8.28311 14.685 8.15627 14.685 8.00002C14.685 7.84377 14.5581 7.71693 14.4019 7.71693H9.28056C9.12434 7.71693 8.99747 7.84377 8.99747 8.00002C8.99747 8.15627 9.12434 8.28311 9.28056 8.28311ZM6.01066 5.76802C5.85409 6.37818 5.75997 7.03352 5.73953 7.71693H7.1985C7.11266 6.90283 6.66069 6.19721 6.01066 5.76802ZM5.49512 5.50299C5.1985 5.38943 4.87672 5.32721 4.54053 5.32721C4.20434 5.32721 3.88256 5.38943 3.58597 5.50299C3.7735 6.1919 3.88597 6.93724 3.90797 7.71693H5.17312C5.19512 6.9373 5.30759 6.19196 5.49512 5.50299ZM3.07041 5.76802C2.42041 6.19721 1.9685 6.90277 1.88259 7.71693H3.34153C3.32109 7.03352 3.227 6.37818 3.07041 5.76802ZM9.28056 5.84952H14.4019C14.5581 5.84952 14.685 5.72268 14.685 5.56643C14.685 5.41018 14.5581 5.28333 14.4019 5.28333H9.28056C9.12434 5.28333 8.99747 5.41018 8.99747 5.56643C8.99747 5.72268 9.12434 5.84952 9.28056 5.84952Z" fill="#20314E"/>
</g>
<defs>
<clipPath id="clip0_2314_714">
<rect width="16" height="16" fill="white"/>
</clipPath>
</defs>
</svg>
