<svg width="40" height="40" viewBox="0 0 40 40" fill="none" xmlns="http://www.w3.org/2000/svg">
<rect x="0.5" y="0.5" width="39" height="39" rx="19.5" fill="white" stroke="#D9D9D9"/>
<path d="M27.5003 12.5H12.5003C12.0401 12.5 11.667 12.8731 11.667 13.3333V15.8333C11.667 16.2936 12.0401 16.6667 12.5003 16.6667H27.5003C27.9606 16.6667 28.3337 16.2936 28.3337 15.8333V13.3333C28.3337 12.8731 27.9606 12.5 27.5003 12.5Z" stroke="black" stroke-width="1.25" stroke-linecap="round" stroke-linejoin="round"/>
<path d="M13.333 16.6667V25.8334C13.333 26.2754 13.5086 26.6994 13.8212 27.0119C14.1337 27.3245 14.5576 27.5001 14.9997 27.5001H24.9997C25.4417 27.5001 25.8656 27.3245 26.1782 27.0119C26.4907 26.6994 26.6663 26.2754 26.6663 25.8334V16.6667" stroke="black" stroke-width="1.25" stroke-linecap="round" stroke-linejoin="round"/>
<path d="M18.333 20H21.6663" stroke="black" stroke-width="1.25" stroke-linecap="round" stroke-linejoin="round"/>
</svg>
