<svg width="40" height="40" viewBox="0 0 40 40" fill="none" xmlns="http://www.w3.org/2000/svg">
<rect x="0.5" y="0.5" width="39" height="39" rx="19.5" fill="white" stroke="#D9D9D9"/>
<path d="M27.6453 15.6766C28.0859 15.2361 28.3334 14.6386 28.3335 14.0156C28.3336 13.3926 28.0862 12.7951 27.6457 12.3545C27.2052 11.9139 26.6077 11.6663 25.9847 11.6663C25.3617 11.6662 24.7642 11.9136 24.3236 12.3541L13.2019 23.4782C13.0085 23.6712 12.8654 23.9087 12.7853 24.1699L11.6844 27.7966C11.6629 27.8686 11.6613 27.9452 11.6797 28.0181C11.6982 28.091 11.736 28.1576 11.7893 28.2107C11.8425 28.2639 11.9091 28.3016 11.9821 28.32C12.055 28.3383 12.1316 28.3366 12.2036 28.3149L15.8311 27.2149C16.0921 27.1355 16.3296 26.9933 16.5228 26.8007L27.6453 15.6766Z" stroke="black" stroke-width="1.25" stroke-linecap="round" stroke-linejoin="round"/>
<path d="M22.5 14.1667L25.8333 17.5001" stroke="black" stroke-width="1.25" stroke-linecap="round" stroke-linejoin="round"/>
</svg>
