<svg width="14" height="16" viewBox="0 0 14 16" fill="none" xmlns="http://www.w3.org/2000/svg">
<path d="M4.97521 2.40022L4.97521 2.39981C4.97517 2.0611 5.0601 1.72779 5.22221 1.43039C5.38433 1.13299 5.61845 0.881009 5.90315 0.697506C6.18784 0.514003 6.51402 0.404844 6.85182 0.380019C7.18963 0.355195 7.52826 0.415499 7.83672 0.555412C8.14519 0.695324 8.41363 0.910376 8.61748 1.18088C8.82132 1.45138 8.95406 1.7687 9.00354 2.10378C9.05302 2.43885 9.01767 2.78099 8.90071 3.09887C8.78374 3.41675 8.58892 3.70021 8.33406 3.92331L7.80373 4.38754L8.48506 4.56797C9.80997 4.91884 10.9679 5.72729 11.7539 6.85014L12.946 8.55333C13.007 8.64527 13.0299 8.75738 13.0097 8.86593C12.9894 8.97543 12.9269 9.07256 12.8357 9.13644C12.7444 9.20033 12.6318 9.22585 12.5219 9.20752C12.4131 9.18935 12.3155 9.12953 12.25 9.04079L11.0579 7.33767L11.0578 7.33752C10.8815 7.08588 10.6821 6.85118 10.4623 6.63646L9.82528 6.01411V6.9047V15.2C9.82528 15.3127 9.7805 15.4208 9.7008 15.5005C9.62109 15.5802 9.51299 15.625 9.40027 15.625C9.28755 15.625 9.17945 15.5802 9.09974 15.5005L8.83458 15.7657L9.09974 15.5005C9.02004 15.4208 8.97526 15.3127 8.97526 15.2V12V11.625H8.60026H5.40022H5.02522V12V15.2C5.02522 15.3127 4.98044 15.4208 4.90074 15.5005C4.82103 15.5802 4.71293 15.625 4.60021 15.625C4.48749 15.625 4.37939 15.5802 4.29968 15.5005C4.21998 15.4208 4.1752 15.3127 4.1752 15.2V6.9039V6.01343L3.53817 6.63564C3.31834 6.85035 3.11898 7.08507 2.94266 7.33675L2.94246 7.33704L1.75121 9.04087C1.68568 9.12957 1.58819 9.18935 1.47934 9.20752C1.36949 9.22585 1.25683 9.20033 1.1656 9.13644C1.07438 9.07256 1.01187 8.97543 0.991528 8.86593C0.971362 8.75739 0.994232 8.64529 1.05522 8.55336L2.24735 6.85101L2.2474 6.85092C3.03329 5.72804 4.19128 4.91958 5.5162 4.56878L6.19881 4.38804L5.66679 3.92374C5.44934 3.73396 5.2751 3.49978 5.1558 3.23697C5.0365 2.97417 4.97492 2.68884 4.97521 2.40022Z" stroke="white" stroke-width="0.75"/>
</svg>
