<svg width="22" height="22" viewBox="0 0 22 22" fill="none" xmlns="http://www.w3.org/2000/svg">
<path fill-rule="evenodd" clip-rule="evenodd" d="M12.4327 3.68138C14.0397 2.07447 16.6451 2.07447 18.2522 3.68138C19.8591 5.2883 19.8591 7.89393 18.2522 9.50084L15.6168 12.1363C15.5718 12.1812 15.5184 12.2169 15.4597 12.2412C15.401 12.2655 15.338 12.278 15.2744 12.278C15.2109 12.278 15.1479 12.2655 15.0892 12.2411C15.0305 12.2168 14.9771 12.1811 14.9321 12.1361C14.8872 12.0912 14.8515 12.0378 14.8272 11.9791C14.8029 11.9203 14.7904 11.8574 14.7904 11.7938C14.7904 11.7302 14.803 11.6673 14.8273 11.6085C14.8516 11.5498 14.8873 11.4965 14.9323 11.4515L17.5677 8.81609C18.7965 7.5873 18.7965 5.59493 17.5677 4.36591C16.3389 3.13688 14.3463 3.13711 13.1173 4.36591L10.4818 7.00132C10.3904 7.0888 10.2683 7.13699 10.1417 7.13556C10.0152 7.13414 9.89419 7.08322 9.80471 6.99371C9.71523 6.9042 9.66435 6.78321 9.66297 6.65665C9.66159 6.53009 9.70982 6.40801 9.79732 6.31657L12.4327 3.68138ZM7.01341 9.78524C7.10413 9.87604 7.15509 9.99914 7.15509 10.1275C7.15509 10.2559 7.10413 10.379 7.01341 10.4698L4.37799 13.1052C3.1492 14.334 3.1492 16.3263 4.37799 17.5554C5.60701 18.7842 7.59939 18.7842 8.82841 17.5554L11.4638 14.9199C11.5088 14.875 11.5622 14.8394 11.6209 14.815C11.6796 14.7907 11.7426 14.7782 11.8062 14.7782C11.8697 14.7782 11.9327 14.7908 11.9914 14.8151C12.0502 14.8394 12.1035 14.8751 12.1485 14.9201C12.1934 14.965 12.2291 15.0184 12.2534 15.0771C12.2777 15.1359 12.2902 15.1988 12.2902 15.2624C12.2902 15.326 12.2777 15.3889 12.2533 15.4477C12.229 15.5064 12.1933 15.5598 12.1483 15.6047L9.51293 18.2401C7.90601 19.847 5.30061 19.847 3.69347 18.2401C2.08655 16.633 2.08655 14.0276 3.69347 12.4204L6.32889 9.78501C6.37383 9.74003 6.42721 9.70434 6.48595 9.67999C6.5447 9.65565 6.60767 9.64311 6.67126 9.64311C6.73485 9.64311 6.79782 9.65565 6.85657 9.67999C6.91531 9.70434 6.96869 9.74003 7.01364 9.78501L7.01341 9.78524Z" fill="#1364F1"/>
<path fill-rule="evenodd" clip-rule="evenodd" d="M13.7853 8.20146C13.9732 8.39167 13.9709 8.69829 13.7807 8.88598L8.89784 13.7008C8.80562 13.7868 8.6835 13.8334 8.55744 13.8308C8.43137 13.8281 8.31131 13.7764 8.22278 13.6866C8.13425 13.5968 8.08424 13.4761 8.08337 13.35C8.0825 13.2239 8.13084 13.1024 8.21813 13.0114L13.1008 8.19665C13.291 8.00873 13.5976 8.01125 13.7853 8.20146ZM2.58154 7.96473C2.58154 7.69729 2.79833 7.4805 3.06577 7.4805H4.91469C5.04126 7.48325 5.16172 7.53547 5.25026 7.62596C5.3388 7.71645 5.38838 7.83801 5.38838 7.96462C5.38838 8.09122 5.3388 8.21278 5.25026 8.30327C5.16172 8.39376 5.04126 8.44598 4.91469 8.44873H3.06577C2.93739 8.44873 2.81426 8.39774 2.72345 8.30698C2.63265 8.21622 2.5816 8.09312 2.58154 7.96473ZM19.2282 13.7757C19.2282 13.9041 19.1772 14.0273 19.0864 14.1181C18.9956 14.2089 18.8724 14.2599 18.744 14.2599H16.8953C16.7687 14.2572 16.6483 14.205 16.5597 14.1145C16.4712 14.024 16.4216 13.9024 16.4216 13.7758C16.4216 13.6492 16.4712 13.5277 16.5597 13.4372C16.6483 13.3467 16.7687 13.2945 16.8953 13.2917H18.744C19.0114 13.2917 19.2282 13.5085 19.2282 13.7757ZM7.98988 2.5564C8.25731 2.5564 8.47411 2.77319 8.47411 3.0404V4.88954C8.47135 5.01611 8.41914 5.13657 8.32865 5.22511C8.23816 5.31366 8.11659 5.36324 7.98999 5.36324C7.86339 5.36324 7.74182 5.31366 7.65133 5.22511C7.56084 5.13657 7.50863 5.01611 7.50588 4.88954V3.0404C7.50588 2.77319 7.72267 2.5564 7.98988 2.5564ZM13.8203 19.1836C13.6919 19.1835 13.5688 19.1325 13.4781 19.0417C13.3873 18.9509 13.3363 18.8277 13.3363 18.6994V16.8507C13.3391 16.7241 13.3913 16.6036 13.4818 16.5151C13.5723 16.4266 13.6938 16.377 13.8204 16.377C13.9471 16.377 14.0686 16.4266 14.1591 16.5151C14.2496 16.6036 14.3018 16.7241 14.3046 16.8507V18.6994C14.3046 18.8278 14.2535 18.9509 14.1627 19.0418C14.0719 19.1326 13.9488 19.1836 13.8203 19.1836ZM4.26431 4.23917C4.35511 4.14844 4.47822 4.09748 4.60657 4.09748C4.73493 4.09748 4.85804 4.14844 4.94883 4.23917L6.17488 5.46521C6.21984 5.51016 6.25551 5.56352 6.27984 5.62225C6.30418 5.68098 6.31672 5.74393 6.31673 5.8075C6.31674 5.87108 6.30423 5.93403 6.27991 5.99277C6.25559 6.05151 6.21994 6.10488 6.17499 6.14984C6.13004 6.19481 6.07668 6.23047 6.01795 6.25481C5.95922 6.27915 5.89627 6.29168 5.8327 6.29169C5.76912 6.2917 5.70617 6.27919 5.64743 6.25487C5.58869 6.23056 5.53532 6.19491 5.49036 6.14996L4.26431 4.92392C4.21933 4.87897 4.18364 4.8256 4.1593 4.76685C4.13495 4.7081 4.12242 4.64513 4.12242 4.58154C4.12242 4.51795 4.13495 4.45498 4.1593 4.39623C4.18364 4.33749 4.21933 4.28412 4.26431 4.23917ZM17.5457 17.501C17.4549 17.5918 17.3318 17.6427 17.2034 17.6427C17.0751 17.6427 16.9519 17.5918 16.8611 17.501L15.6351 16.275C15.5901 16.2301 15.5545 16.1767 15.5301 16.118C15.5058 16.0592 15.4933 15.9963 15.4933 15.9327C15.4932 15.8691 15.5058 15.8062 15.5301 15.7474C15.5544 15.6887 15.59 15.6353 15.635 15.5904C15.6799 15.5454 15.7333 15.5097 15.792 15.4854C15.8508 15.4611 15.9137 15.4485 15.9773 15.4485C16.0409 15.4485 16.1038 15.461 16.1626 15.4853C16.2213 15.5097 16.2747 15.5453 16.3196 15.5903L17.5457 16.8163C17.6365 16.9071 17.6875 17.0303 17.6875 17.1587C17.6875 17.2871 17.6365 17.4102 17.5457 17.501Z" fill="#1364F1"/>
</svg>
