<svg width="137" height="40" viewBox="0 0 137 40" fill="none" xmlns="http://www.w3.org/2000/svg">
<path d="M39.5 19.8957C39.5 30.6051 30.772 39.2913 20 39.2913C9.22798 39.2913 0.5 30.6051 0.5 19.8957C0.5 9.1862 9.22798 0.5 20 0.5C30.772 0.5 39.5 9.1862 39.5 19.8957Z" fill="white" stroke="#D9D9D9"/>
<path d="M19.6649 26V16.64L17.6809 17.488V15.936L20.3049 14.8H21.4089V26H19.6649Z" fill="black"/>
<path d="M87.7515 19.8957C87.7515 30.6051 79.0235 39.2913 68.2515 39.2913C57.4794 39.2913 48.7515 30.6051 48.7515 19.8957C48.7515 9.1862 57.4794 0.5 68.2515 0.5C79.0235 0.5 87.7515 9.1862 87.7515 19.8957Z" fill="white" stroke="#D9D9D9"/>
<path d="M64.1301 26V25.152L68.6101 20.256C69.6501 19.104 69.9701 18.48 69.9701 17.632C69.9701 16.512 68.9781 15.68 67.6181 15.68C66.5621 15.68 65.7621 16.048 64.6581 17.04L63.9861 16.24C65.1541 15.168 66.3221 14.656 67.6341 14.656C69.6501 14.656 71.1061 15.872 71.1061 17.568C71.1061 18.672 70.7541 19.36 69.3941 20.864L65.5701 25.008L71.3461 24.992V26H64.1301Z" fill="#151515" fill-opacity="0.4"/>
<path d="M136.004 19.8957C136.004 30.6051 127.276 39.2913 116.504 39.2913C105.732 39.2913 97.0039 30.6051 97.0039 19.8957C97.0039 9.1862 105.732 0.5 116.504 0.5C127.276 0.5 136.004 9.1862 136.004 19.8957Z" fill="white" stroke="#D9D9D9"/>
<path d="M119.999 22.928C119.999 24.8 118.351 26.16 116.079 26.16C114.543 26.16 113.183 25.616 112.159 24.576L112.927 23.824C113.871 24.768 114.799 25.152 116.063 25.152C117.695 25.152 118.847 24.224 118.847 22.896C118.847 21.664 117.839 20.768 116.431 20.768H115.103V19.776H116.383C117.599 19.776 118.431 18.96 118.431 17.76C118.431 16.576 117.375 15.648 115.999 15.648C114.847 15.648 114.015 16.032 113.071 17.008L112.303 16.24C113.311 15.184 114.591 14.624 116.015 14.624C118.063 14.624 119.583 15.936 119.583 17.696C119.583 18.88 118.751 19.872 117.487 20.24C118.991 20.56 119.999 21.632 119.999 22.928Z" fill="#151515" fill-opacity="0.4"/>
</svg>
