<svg width="68" height="68" viewBox="0 0 68 68" fill="none" xmlns="http://www.w3.org/2000/svg">
<path d="M34.0001 0.666992C15.6667 0.666992 0.666748 15.667 0.666748 34.0003C0.666748 52.3337 15.6667 67.3337 34.0001 67.3337C52.3334 67.3337 67.3334 52.3337 67.3334 34.0003C67.3334 15.667 52.3334 0.666992 34.0001 0.666992ZM48.3334 26.0003L33.0001 46.0003C32.3334 46.667 31.3334 47.3337 30.3334 47.3337C29.3334 47.3337 28.3334 47.0003 27.6667 46.0003L19.6667 35.667C18.6667 34.3337 18.6667 32.0003 20.3334 31.0003C22.0001 30.0003 24.0001 30.0003 25.0001 31.667L30.3334 38.667L43.0001 22.0003C44.0001 20.667 46.3334 20.3337 47.6668 21.3337C49.3334 22.3337 49.3334 24.3337 48.3334 26.0003Z" fill="#02BC7D"/>
</svg>
