<svg width="16" height="16" viewBox="0 0 16 16" fill="none" xmlns="http://www.w3.org/2000/svg">
<path fill-rule="evenodd" clip-rule="evenodd" d="M6.40293 4.25061H3.07199C2.73113 4.25061 2.43302 4.48047 2.34677 4.81008L1.65681 7.43944L0.942476 7.76079C0.810663 7.82005 0.698777 7.91612 0.620279 8.03746C0.54178 8.1588 0.500012 8.30024 0.5 8.44476V11.0002C0.500003 11.1319 0.534658 11.2612 0.60048 11.3752C0.666303 11.4892 0.760974 11.5839 0.87498 11.6497V12.8301C0.87498 13.1404 0.998241 13.438 1.21765 13.6574C1.43705 13.8768 1.73463 14.0001 2.04492 14.0001H2.70488C3.01517 14.0001 3.31274 13.8768 3.53215 13.6574C3.75156 13.438 3.87482 13.1404 3.87482 12.8301V11.7502H7.62461V12.8301C7.62461 13.1404 7.74787 13.438 7.96728 13.6574C8.18669 13.8768 8.48426 14.0001 8.79455 14.0001H9.45451C9.7648 14.0001 10.0624 13.8768 10.2818 13.6574C10.5012 13.438 10.6245 13.1404 10.6245 12.8301V11.6497C10.7385 11.5839 10.8331 11.4892 10.899 11.3752C10.9648 11.2612 10.9994 11.1319 10.9994 11.0002V9.50033H12.1244V10.5803C12.1244 10.8906 12.2476 11.1881 12.467 11.4075C12.6864 11.6269 12.984 11.7502 13.2943 11.7502H13.9543C14.1079 11.7502 14.26 11.7199 14.402 11.6611C14.5439 11.6024 14.6729 11.5162 14.7815 11.4075C14.8902 11.2989 14.9764 11.1699 15.0352 11.028C15.0939 10.886 15.1242 10.7339 15.1242 10.5803V9.39983C15.2382 9.33401 15.3329 9.23934 15.3987 9.12533C15.4645 9.01133 15.4992 8.88201 15.4992 8.75037V6.19488C15.4992 6.05036 15.4574 5.90893 15.3789 5.78759C15.3004 5.66624 15.1885 5.57017 15.0567 5.51092L14.1586 5.10706L13.4904 2.5602C13.4483 2.39987 13.3543 2.258 13.223 2.15678C13.0917 2.05556 12.9306 2.00068 12.7648 2.00073H7.57174C7.23089 2.00073 6.93278 2.23059 6.84653 2.5602L6.40293 4.25061ZM3.12486 11.7502V12.8301C3.12486 12.9415 3.08061 13.0484 3.00185 13.1271C2.92309 13.2059 2.81627 13.2501 2.70488 13.2501H2.04492C1.93353 13.2501 1.82671 13.2059 1.74795 13.1271C1.66919 13.0484 1.62494 12.9415 1.62494 12.8301V11.7502H3.12486ZM9.87449 11.7502V12.8301C9.87449 12.9415 9.83024 13.0484 9.75148 13.1271C9.67272 13.2059 9.5659 13.2501 9.45451 13.2501H8.79455C8.68317 13.2501 8.57634 13.2059 8.49758 13.1271C8.41882 13.0484 8.37457 12.9415 8.37457 12.8301V11.7502H9.87449ZM9.26103 8.00041H2.23841L1.24996 8.44476V11.0002H10.2495V8.44476L9.26103 8.00041ZM14.3742 9.50033V10.5803C14.3742 10.6917 14.33 10.7985 14.2512 10.8772C14.1725 10.956 14.0657 11.0002 13.9543 11.0002H13.2943C13.1829 11.0002 13.0761 10.956 12.9973 10.8772C12.9186 10.7985 12.8743 10.6917 12.8743 10.5803V9.50033H14.3742ZM7.62461 9.87531H9.12453C9.22398 9.87531 9.31936 9.8358 9.38968 9.76548C9.46001 9.69515 9.49951 9.59978 9.49951 9.50033C9.49951 9.40087 9.46001 9.3055 9.38968 9.23517C9.31936 9.16485 9.22398 9.12535 9.12453 9.12535H7.62461C7.52516 9.12535 7.42979 9.16485 7.35946 9.23517C7.28914 9.3055 7.24963 9.40087 7.24963 9.50033C7.24963 9.59978 7.28914 9.69515 7.35946 9.76548C7.42979 9.8358 7.52516 9.87531 7.62461 9.87531ZM2.3749 9.87531H3.87482C3.97427 9.87531 4.06965 9.8358 4.13997 9.76548C4.21029 9.69515 4.2498 9.59978 4.2498 9.50033C4.2498 9.40087 4.21029 9.3055 4.13997 9.23517C4.06965 9.16485 3.97427 9.12535 3.87482 9.12535H2.3749C2.27545 9.12535 2.18007 9.16485 2.10975 9.23517C2.03943 9.3055 1.99992 9.40087 1.99992 9.50033C1.99992 9.59978 2.03943 9.69515 2.10975 9.76548C2.18007 9.8358 2.27545 9.87531 2.3749 9.87531ZM13.7608 5.75053H9.2374L9.65888 7.35694L10.557 7.76079C10.6888 7.82005 10.8007 7.91612 10.8792 8.03746C10.9577 8.1588 10.9994 8.30024 10.9994 8.44476V8.75037H14.7492V6.19488L13.7608 5.75053ZM12.1244 7.62543H13.6243C13.7237 7.62543 13.8191 7.58592 13.8894 7.5156C13.9598 7.44528 13.9993 7.3499 13.9993 7.25045C13.9993 7.151 13.9598 7.05562 13.8894 6.9853C13.8191 6.91497 13.7237 6.87547 13.6243 6.87547H12.1244C12.0249 6.87547 11.9295 6.91497 11.8592 6.9853C11.7889 7.05562 11.7494 7.151 11.7494 7.25045C11.7494 7.3499 11.7889 7.44528 11.8592 7.5156C11.9295 7.58592 12.0249 7.62543 12.1244 7.62543ZM2.48177 7.25045L3.07199 5.00057H8.26545L8.85567 7.25045H2.48177ZM7.17839 4.25061H8.26508C8.43085 4.25056 8.59196 4.30544 8.72324 4.40666C8.85452 4.50788 8.94856 4.64975 8.99066 4.81008L9.04054 5.00057H13.3554L12.7652 2.75069H7.57174L7.17839 4.25061Z" fill="white"/>
</svg>
