<svg width="72" height="72" viewBox="0 0 72 72" fill="none" xmlns="http://www.w3.org/2000/svg">
<g clip-path="url(#clip0_864_1358)">
<path d="M65.7682 70.1129H6.23175C3.9835 70.1129 1.96807 68.9516 0.840638 67.0065C-0.263723 65.1009 -0.280605 62.8534 0.794213 60.8395L30.5627 5.0767C31.6287 3.07984 33.6614 1.8877 36 1.8877C38.3387 1.8877 40.3713 3.07984 41.4374 5.0767L71.2058 60.8394C72.2809 62.8531 72.2638 65.1011 71.1593 67.0065C70.032 68.9516 68.0168 70.1129 65.7682 70.1129Z" fill="#FF4C04"/>
<path d="M36.0001 60.9715C32.8972 60.9715 30.3728 58.4473 30.3728 55.3444C30.3728 52.2415 32.8972 49.717 36.0001 49.717C39.103 49.717 41.6274 52.2415 41.6274 55.3444C41.6274 58.4473 39.103 60.9715 36.0001 60.9715ZM36.0003 44.0897C32.8972 44.0897 30.3728 41.5653 30.3728 38.4624V26.2933C30.3728 23.1904 32.8972 20.666 36.0001 20.666C39.103 20.666 41.6274 23.1904 41.6274 26.2933V38.4624C41.6274 41.5653 39.1032 44.0897 36.0003 44.0897Z" fill="#FFF3F3"/>
<path d="M36.0001 20.666H35.9999V44.0897H36.0002C39.1031 44.0897 41.6274 41.5653 41.6274 38.4624V26.2933C41.6274 23.1906 39.103 20.666 36.0001 20.666ZM36.0001 49.717H35.9999V60.9715H36.0001C39.103 60.9715 41.6274 58.4473 41.6274 55.3444C41.6274 52.2415 39.103 49.717 36.0001 49.717Z" fill="#DAD0CB"/>
</g>
<defs>
<clipPath id="clip0_864_1358">
<rect width="72" height="72" fill="white"/>
</clipPath>
</defs>
</svg>
